<svg width="180" height="52" viewBox="0 0 180 52" fill="none" xmlns="http://www.w3.org/2000/svg">
<path d="M94.7708 45.2582C95.156 45.1921 95.5484 45.1248 95.9298 45.1248C96.3354 45.1248 96.741 45.1248 97.3485 45.734C98.5653 47.3579 94.3075 49.9965 93.0923 50.4037C90.0513 51.622 86.8082 51.622 83.7687 50.8093C78.9034 49.5909 76.6735 46.3431 76.6735 40.8607V12.8441C75.2547 12.8441 74.2416 12.8441 74.2416 11.0182C74.2416 9.80144 74.6472 9.19069 76.2679 8.17595L88.8361 0.665619C90.0513 -0.147126 91.8756 -0.552703 91.8756 1.47836V9.19069H95.5242C96.741 9.19069 97.1465 10.0034 97.1465 11.0182C97.1465 12.0329 96.741 12.8441 95.5242 12.8441H91.8756V41.6734C91.8756 41.8765 91.8531 42.0795 91.8307 42.2826C91.7858 42.6887 91.7409 43.0948 91.8756 43.5009C92.3415 45.675 93.5175 45.4732 94.7708 45.2582Z" fill="#98FF99"/>
<path fill-rule="evenodd" clip-rule="evenodd" d="M127.752 10.0055C122.481 7.5689 117.008 7.5689 111.739 9.59838C103.429 12.8478 99.1725 19.1414 98.5633 27.87C97.9557 35.3819 100.388 41.8791 106.266 46.7508C111.537 51.0149 117.82 52.0297 124.306 50.8114C128.766 49.9986 132.616 47.5636 135.454 43.9086C135.454 43.9086 135.454 43.7066 135.657 43.7066C136.063 42.8939 135.454 41.8791 134.44 41.6755H134.035C133.359 41.6755 132.682 41.8563 132.006 42.037C131.669 42.127 131.332 42.217 130.995 42.2847C124.509 43.503 118.631 41.27 115.793 35.3819L115.702 35.2152C114.536 33.0756 113.74 31.6164 112.752 27.2609H134.44C136.468 27.2609 136.872 26.8553 136.872 24.8258C136.872 18.125 134.035 12.8478 127.752 10.0055ZM123.698 21.1708C123.698 22.5927 122.887 23.4039 121.468 23.4039H112.752C112.752 19.7489 113.158 16.0956 115.184 12.8478C117.212 9.39638 120.455 9.59838 122.279 13.0498C123.698 15.69 123.9 18.3286 123.698 21.1708Z" fill="#98FF99"/>
<path fill-rule="evenodd" clip-rule="evenodd" d="M178.427 46.3449C178.225 45.3302 178.021 44.1118 178.021 43.0971C177.92 39.6592 177.87 36.2214 177.819 32.7835C177.768 29.3186 177.718 25.8537 177.615 22.3888C177.413 15.8916 174.17 11.4255 168.088 9.59801C161.806 7.77212 155.724 7.77212 149.441 10.0052C147.009 10.8163 144.779 12.2382 143.563 14.6733C142.347 16.9079 142.549 19.343 143.968 21.1705C145.996 23.6071 148.834 23.6071 151.467 22.998C153.495 22.5908 154.712 20.7649 154.914 18.3283L154.988 17.8055C155.166 16.5591 155.343 15.3118 155.522 14.0657C155.929 12.0347 157.144 10.8163 159.17 10.8163C160.995 10.8163 162.008 11.8327 162.413 14.0657C162.515 15.2878 162.566 16.5616 162.617 17.8352V17.8355C162.668 19.0994 162.718 20.3632 162.819 21.5761C163.133 24.8803 157.119 26.3556 153.168 27.3246C152.021 27.6061 151.048 27.8448 150.454 28.0732C146.806 29.2916 143.563 31.1191 141.334 34.3669C137.482 39.8477 138.901 47.3596 144.374 50.2019C150.656 53.4497 159.981 52.2329 163.832 44.5174C165.049 47.3596 166.873 49.3907 169.711 50.2019C170.974 50.5627 172.397 50.7637 173.694 50.947C173.855 50.9697 174.014 50.9922 174.17 51.0146C175.791 51.2182 181.466 51.8258 179.643 48.9835C179.39 48.097 179.058 47.5265 178.794 47.0747L178.794 47.0742C178.636 46.8025 178.502 46.5737 178.427 46.3449ZM162.819 38.833C162.819 41.066 160.589 42.8935 158.361 42.6899C156.131 42.4879 154.712 41.066 154.51 38.6294C154.305 36.8035 154.914 34.976 155.929 33.5541C157.752 31.1191 159.981 29.4936 162.819 27.8697C162.819 29.088 162.841 30.3063 162.864 31.5244C162.909 33.9605 162.954 36.3964 162.819 38.833Z" fill="#98FF99"/>
<path d="M16.739 9.12931C19.7854 8.36139 23.5826 8.57661 27.0759 11.4914C28.9107 13.0223 30.7738 13.1719 32.42 12.7924C33.3294 12.5827 34.115 12.2219 34.7119 11.869C35.3019 11.5201 35.7286 11.1662 35.9096 10.9552C36.9474 9.74452 38.7702 9.60443 39.9809 10.6423C41.1915 11.6801 41.3316 13.5029 40.2937 14.7136C39.0903 16.1174 36.6394 17.7457 33.7173 18.4194C30.6355 19.13 26.8359 18.8119 23.3763 15.9253C21.5754 14.4226 19.7804 14.3179 18.1505 14.7288C16.3864 15.1735 14.9406 16.2173 14.4245 16.7163C13.2781 17.8248 11.4502 17.794 10.3417 16.6477C9.2333 15.5013 9.26405 13.6734 10.4104 12.5649C11.5176 11.4944 13.8285 9.86296 16.739 9.12931Z" fill="#98FF99"/>
<path d="M8.28922 8.3886C8.87506 6.91786 8.14394 5.23511 6.65622 4.63008C5.1685 4.02505 3.48755 4.72685 2.90171 6.19759C-2.66534 20.1736 0.0017725 36.2039 8.98547 45.7421C10.0868 46.9115 11.9193 46.9856 13.0784 45.9078C14.2375 44.8299 14.2843 43.0082 13.183 41.8388C5.97235 34.1831 3.42188 20.6079 8.28922 8.3886Z" fill="#98FF99"/>
<path d="M43.9845 4.63008C42.4968 5.23511 41.7657 6.91786 42.3515 8.3886C47.2188 20.6079 44.6684 34.1831 37.4577 41.8388C36.3564 43.0082 36.4032 44.8299 37.5623 45.9078C38.7214 46.9856 40.5539 46.9115 41.6553 45.7421C50.6389 36.2039 53.3061 20.1735 47.739 6.19759C47.1532 4.72685 45.4722 4.02505 43.9845 4.63008Z" fill="#98FF99"/>
<path d="M19.8749 44.1359C18.2803 44.1359 16.9876 45.4286 16.9876 47.0233C16.9876 48.6179 18.2803 49.9106 19.8749 49.9106H30.5767C32.1713 49.9106 33.464 48.6179 33.464 47.0233C33.464 45.4286 32.1713 44.1359 30.5767 44.1359H19.8749Z" fill="#98FF99"/>
<path d="M55.4447 16.4788V16.3622C55.4447 14.7676 56.7374 13.4749 58.3321 13.4749C59.9267 13.4749 61.2194 14.7676 61.2194 16.3622V16.4788C61.2194 18.0734 59.9267 19.3661 58.3321 19.3661C56.7374 19.3661 55.4447 18.0734 55.4447 16.4788Z" fill="#98FF99"/>
<path d="M58.6375 25.9924C57.0516 25.8252 55.6305 26.9752 55.4633 28.5611C55.1963 31.093 54.487 33.5383 53.8217 35.3846C53.4923 36.2988 53.1814 37.0452 52.956 37.5564C52.8459 37.8062 52.7329 38.0548 52.6126 38.2998L52.6117 38.3015C51.8955 39.7253 52.4684 41.4604 53.892 42.1776C55.3089 42.8915 57.0347 42.328 57.7587 40.9195C57.7587 40.9195 58.0883 40.2299 58.2399 39.8859C58.5103 39.2726 58.8729 38.4012 59.2545 37.3422C60.0111 35.2423 60.8736 32.32 61.2061 29.1666C61.3733 27.5808 60.2233 26.1596 58.6375 25.9924Z" fill="#98FF99"/>
</svg>
