<svg width="2000" height="2000" viewBox="0 0 2000 2000" fill="none" xmlns="http://www.w3.org/2000/svg">
<rect width="2000" height="2000" fill="#7020C4"/>
<rect x="457.143" y="600" width="57.1429" height="57.1429" fill="#212529"/>
<rect x="457.143" y="657.143" width="57.1429" height="57.1429" fill="#212529"/>
<rect x="457.143" y="714.286" width="57.1429" height="57.1429" fill="#212529"/>
<rect x="457.143" y="771.429" width="57.1429" height="57.1429" fill="#212529"/>
<rect x="457.143" y="828.571" width="57.1429" height="57.1429" fill="#212529"/>
<rect x="514.286" y="885.714" width="57.1429" height="57.1429" fill="#212529"/>
<rect x="514.286" y="828.571" width="57.1429" height="57.1429" fill="#212529"/>
<rect x="457.143" y="885.714" width="57.1429" height="57.1429" fill="#212529"/>
<rect x="514.286" y="942.857" width="57.1429" height="57.1429" fill="#212529"/>
<rect x="571.429" y="1000" width="57.1429" height="57.1429" fill="#212529"/>
<rect x="571.429" y="1057.14" width="57.1429" height="57.1429" fill="#212529"/>
<rect x="571.429" y="1114.29" width="57.1429" height="57.1429" fill="#212529"/>
<rect x="571.429" y="1171.43" width="57.1429" height="57.1429" fill="#212529"/>
<rect x="571.429" y="1228.57" width="57.1429" height="57.1429" fill="#212529"/>
<rect x="628.571" y="1228.57" width="57.1429" height="57.1429" fill="#212529"/>
<rect x="628.571" y="1285.71" width="57.1429" height="57.1429" fill="#212529"/>
<rect x="685.714" y="1285.71" width="57.1429" height="57.1429" fill="#212529"/>
<rect x="685.714" y="1342.86" width="57.1429" height="57.1429" fill="#212529"/>
<rect x="742.857" y="1342.86" width="57.1429" height="57.1429" fill="#212529"/>
<rect x="742.857" y="1400" width="57.1429" height="57.1429" fill="#212529"/>
<rect x="685.714" y="1400" width="57.1429" height="57.1429" fill="#212529"/>
<rect x="628.571" y="1400" width="57.1429" height="57.1429" fill="#212529"/>
<rect x="628.571" y="1342.86" width="57.1429" height="57.1429" fill="#212529"/>
<rect x="628.571" y="1457.14" width="57.1429" height="57.1429" fill="#212529"/>
<rect x="742.857" y="1457.14" width="57.1429" height="57.1429" fill="#212529"/>
<rect x="800" y="1571.43" width="57.1429" height="57.1429" fill="#212529"/>
<rect x="857.143" y="1628.57" width="57.1429" height="57.1429" fill="#212529"/>
<rect x="1257.14" y="1285.71" width="57.1429" height="57.1429" fill="#212529"/>
<rect x="1028.57" y="1571.43" width="57.1429" height="57.1429" fill="#212529"/>
<rect x="971.429" y="1628.57" width="57.1429" height="57.1429" fill="#212529"/>
<rect x="914.286" y="1628.57" width="57.1429" height="57.1429" fill="#212529"/>
<rect x="800" y="1628.57" width="57.1429" height="57.1429" fill="#212529"/>
<rect x="742.857" y="1628.57" width="57.1429" height="57.1429" fill="#212529"/>
<rect x="685.714" y="1571.43" width="57.1429" height="57.1429" fill="#212529"/>
<rect x="685.714" y="1514.29" width="57.1429" height="57.1429" fill="#212529"/>
<rect x="742.857" y="1000" width="57.1429" height="57.1429" fill="#FF8947"/>
<rect x="685.714" y="1000" width="57.1429" height="57.1429" fill="#FF8947"/>
<rect x="685.714" y="1057.14" width="57.1429" height="57.1429" fill="#FF8947"/>
<rect x="742.857" y="1057.14" width="57.1429" height="57.1429" fill="#FF8947"/>
<rect x="1028.57" y="1057.14" width="57.1429" height="57.1429" fill="#FF8947"/>
<rect x="1085.71" y="1057.14" width="57.1429" height="57.1429" fill="#FF8947"/>
<rect x="1085.71" y="1000" width="57.1429" height="57.1429" fill="#FF8947"/>
<rect x="1028.57" y="1000" width="57.1429" height="57.1429" fill="#FF8947"/>
<rect x="742.857" y="1457.14" width="57.1429" height="57.1429" fill="#212529"/>
<rect x="800" y="1457.14" width="57.1429" height="57.1429" fill="#212529"/>
<rect x="857.143" y="1457.14" width="57.1429" height="57.1429" fill="#212529"/>
<rect x="914.286" y="1457.14" width="57.1429" height="57.1429" fill="#212529"/>
<rect x="971.429" y="1457.14" width="57.1429" height="57.1429" fill="#212529"/>
<rect x="1028.57" y="1400" width="57.1429" height="57.1429" fill="#212529"/>
<rect x="1085.71" y="1400" width="57.1429" height="57.1429" fill="#212529"/>
<rect x="1142.86" y="1342.86" width="57.1429" height="57.1429" fill="#212529"/>
<rect x="1200" y="1285.71" width="57.1429" height="57.1429" fill="#212529"/>
<rect x="1200" y="1228.57" width="57.1429" height="57.1429" fill="#212529"/>
<rect x="1257.14" y="1228.57" width="57.1429" height="57.1429" fill="#212529"/>
<rect x="1314.29" y="1228.57" width="57.1429" height="57.1429" fill="#212529"/>
<rect x="1371.43" y="1171.43" width="57.1429" height="57.1429" fill="#212529"/>
<rect x="1428.57" y="1114.29" width="57.1429" height="57.1429" fill="#212529"/>
<rect x="1485.71" y="1000" width="57.1429" height="57.1429" fill="#212529"/>
<rect x="1485.71" y="942.857" width="57.1429" height="57.1429" fill="#212529"/>
<rect x="1542.86" y="942.857" width="57.1429" height="57.1429" fill="#212529"/>
<rect x="1542.86" y="885.714" width="57.1429" height="57.1429" fill="#212529"/>
<rect x="1485.71" y="885.714" width="57.1429" height="57.1429" fill="#212529"/>
<rect x="1485.71" y="828.571" width="57.1429" height="57.1429" fill="#212529"/>
<rect x="1542.86" y="771.429" width="57.1429" height="57.1429" fill="#212529"/>
<rect x="1600" y="714.286" width="57.1429" height="57.1429" fill="#212529"/>
<rect x="1542.86" y="714.286" width="57.1429" height="57.1429" fill="#212529"/>
<rect x="1485.71" y="771.429" width="57.1429" height="57.1429" fill="#212529"/>
<rect x="1485.71" y="714.286" width="57.1429" height="57.1429" fill="#212529"/>
<rect x="1428.57" y="657.143" width="57.1429" height="57.1429" fill="#212529"/>
<rect x="1485.71" y="657.143" width="57.1429" height="57.1429" fill="#212529"/>
<rect x="1542.86" y="600" width="57.1429" height="57.1429" fill="#212529"/>
<rect x="1485.71" y="600" width="57.1429" height="57.1429" fill="#212529"/>
<rect x="1542.86" y="542.857" width="57.1429" height="57.1429" fill="#212529"/>
<rect x="1600" y="485.714" width="57.1429" height="57.1429" fill="#212529"/>
<rect x="1600" y="428.571" width="57.1429" height="57.1429" fill="#212529"/>
<rect x="1542.86" y="485.714" width="57.1429" height="57.1429" fill="#212529"/>
<rect x="1485.71" y="542.857" width="57.1429" height="57.1429" fill="#212529"/>
<rect x="1428.57" y="542.857" width="57.1429" height="57.1429" fill="#212529"/>
<rect x="1428.57" y="485.714" width="57.1429" height="57.1429" fill="#212529"/>
<rect x="1428.57" y="428.571" width="57.1429" height="57.1429" fill="#212529"/>
<rect x="1428.57" y="371.429" width="57.1429" height="57.1429" fill="#212529"/>
<rect x="1371.43" y="371.429" width="57.1429" height="57.1429" fill="#212529"/>
<rect x="1428.57" y="314.286" width="57.1429" height="57.1429" fill="#212529"/>
<rect x="1371.43" y="428.571" width="57.1429" height="57.1429" fill="#212529"/>
<rect x="1314.29" y="542.857" width="57.1429" height="57.1429" fill="#212529"/>
<rect x="1314.29" y="428.571" width="57.1429" height="57.1429" fill="#212529"/>
<rect x="1314.29" y="485.714" width="57.1429" height="57.1429" fill="#212529"/>
<rect x="1257.14" y="485.714" width="57.1429" height="57.1429" fill="#212529"/>
<rect x="1200" y="485.714" width="57.1429" height="57.1429" fill="#212529"/>
<rect x="1200" y="428.571" width="57.1429" height="57.1429" fill="#212529"/>
<rect x="1200" y="371.429" width="57.1429" height="57.1429" fill="#212529"/>
<rect x="1200" y="314.286" width="57.1429" height="57.1429" fill="#212529"/>
<rect x="1142.86" y="314.286" width="57.1429" height="57.1429" fill="#212529"/>
<rect x="1200" y="257.143" width="57.1429" height="57.1429" fill="#212529"/>
<rect x="1142.86" y="371.429" width="57.1429" height="57.1429" fill="#212529"/>
<rect x="1085.71" y="428.571" width="57.1429" height="57.1429" fill="#212529"/>
<rect x="1085.71" y="371.429" width="57.1429" height="57.1429" fill="#212529"/>
<rect x="1028.57" y="485.714" width="57.1429" height="57.1429" fill="#212529"/>
<rect x="971.429" y="485.714" width="57.1429" height="57.1429" fill="#212529"/>
<rect x="971.429" y="428.571" width="57.1429" height="57.1429" fill="#212529"/>
<rect x="971.429" y="371.429" width="57.1429" height="57.1429" fill="#212529"/>
<rect x="914.286" y="314.286" width="57.1429" height="57.1429" fill="#212529"/>
<rect x="914.286" y="257.143" width="57.1429" height="57.1429" fill="#212529"/>
<rect x="914.286" y="371.429" width="57.1429" height="57.1429" fill="#212529"/>
<rect x="857.143" y="371.429" width="57.1429" height="57.1429" fill="#212529"/>
<rect x="857.143" y="428.571" width="57.1429" height="57.1429" fill="#212529"/>
<rect x="800" y="485.714" width="57.1429" height="57.1429" fill="#212529"/>
<rect x="742.857" y="428.571" width="57.1429" height="57.1429" fill="#212529"/>
<rect x="742.857" y="371.429" width="57.1429" height="57.1429" fill="#212529"/>
<rect x="742.857" y="314.286" width="57.1429" height="57.1429" fill="#212529"/>
<rect x="685.714" y="371.429" width="57.1429" height="57.1429" fill="#212529"/>
<rect x="685.714" y="428.571" width="57.1429" height="57.1429" fill="#212529"/>
<rect x="685.714" y="485.714" width="57.1429" height="57.1429" fill="#212529"/>
<rect x="628.571" y="485.714" width="57.1429" height="57.1429" fill="#212529"/>
<rect x="571.429" y="542.857" width="57.1429" height="57.1429" fill="#212529"/>
<rect x="571.429" y="485.714" width="57.1429" height="57.1429" fill="#212529"/>
<rect x="571.429" y="428.571" width="57.1429" height="57.1429" fill="#212529"/>
<rect x="571.429" y="600" width="57.1429" height="57.1429" fill="#212529"/>
<rect x="514.286" y="657.143" width="57.1429" height="57.1429" fill="#212529"/>
<rect x="514.286" y="714.286" width="57.1429" height="57.1429" fill="#212529"/>
<rect x="571.429" y="771.429" width="57.1429" height="57.1429" fill="#212529"/>
<rect x="571.429" y="828.571" width="57.1429" height="57.1429" fill="#212529"/>
<rect x="571.429" y="885.714" width="57.1429" height="57.1429" fill="#212529"/>
<rect x="571.429" y="942.857" width="57.1429" height="57.1429" fill="#212529"/>
<rect x="628.571" y="714.286" width="57.1429" height="57.1429" fill="#212529"/>
<rect x="685.714" y="657.143" width="57.1429" height="57.1429" fill="#212529"/>
<rect x="742.857" y="600" width="57.1429" height="57.1429" fill="#212529"/>
<rect x="685.714" y="600" width="57.1429" height="57.1429" fill="#212529"/>
<rect x="628.571" y="600" width="57.1429" height="57.1429" fill="#8C8C8C"/>
<rect x="628.571" y="542.857" width="57.1429" height="57.1429" fill="#212529"/>
<rect x="685.714" y="542.857" width="57.1429" height="57.1429" fill="#8C8C8C"/>
<rect x="742.857" y="485.714" width="57.1429" height="57.1429" fill="#8C8C8C"/>
<rect x="628.571" y="657.143" width="57.1429" height="57.1429" fill="#8C8C8C"/>
<rect x="514.286" y="771.429" width="57.1429" height="57.1429" fill="#8C8C8C"/>
<rect x="571.429" y="657.143" width="57.1429" height="57.1429" fill="#212529"/>
<rect x="571.429" y="714.286" width="57.1429" height="57.1429" fill="#212529"/>
<rect x="742.857" y="657.143" width="57.1429" height="57.1429" fill="#8C8C8C"/>
<rect x="800" y="600" width="57.1429" height="57.1429" fill="#8C8C8C"/>
<rect x="857.143" y="542.857" width="57.1429" height="57.1429" fill="#8C8C8C"/>
<rect x="857.143" y="485.714" width="57.1429" height="57.1429" fill="#212529"/>
<rect x="914.286" y="485.714" width="57.1429" height="57.1429" fill="#8C8C8C"/>
<rect x="914.286" y="428.571" width="57.1429" height="57.1429" fill="#212529"/>
<rect x="857.143" y="600" width="57.1429" height="57.1429" fill="#8C8C8C"/>
<rect x="1028.57" y="600" width="57.1429" height="57.1429" fill="#8C8C8C"/>
<rect x="1085.71" y="542.857" width="57.1429" height="57.1429" fill="#8C8C8C"/>
<rect x="1085.71" y="485.714" width="57.1429" height="57.1429" fill="#8C8C8C"/>
<rect x="1257.14" y="542.857" width="57.1429" height="57.1429" fill="#8C8C8C"/>
<rect x="1257.14" y="600" width="57.1429" height="57.1429" fill="#8C8C8C"/>
<rect x="1371.43" y="771.429" width="57.1429" height="57.1429" fill="#8C8C8C"/>
<rect x="1371.43" y="714.286" width="57.1429" height="57.1429" fill="#8C8C8C"/>
<rect x="1200" y="657.143" width="57.1429" height="57.1429" fill="#8C8C8C"/>
<rect x="800" y="542.857" width="57.1429" height="57.1429" fill="#212529"/>
<rect x="742.857" y="542.857" width="57.1429" height="57.1429" fill="#212529"/>
<rect x="971.429" y="542.857" width="57.1429" height="57.1429" fill="#212529"/>
<rect x="1142.86" y="428.571" width="57.1429" height="57.1429" fill="#212529"/>
<rect x="1371.43" y="485.714" width="57.1429" height="57.1429" fill="#212529"/>
<rect x="1428.57" y="600" width="57.1429" height="57.1429" fill="#212529"/>
<rect x="1428.57" y="714.286" width="57.1429" height="57.1429" fill="#212529"/>
<rect x="1428.57" y="771.429" width="57.1429" height="57.1429" fill="#212529"/>
<rect x="1428.57" y="828.571" width="57.1429" height="57.1429" fill="#212529"/>
<rect x="1428.57" y="885.714" width="57.1429" height="57.1429" fill="#212529"/>
<rect x="1428.57" y="942.857" width="57.1429" height="57.1429" fill="#212529"/>
<rect x="1428.57" y="1000" width="57.1429" height="57.1429" fill="#212529"/>
<rect x="1428.57" y="1057.14" width="57.1429" height="57.1429" fill="#212529"/>
<rect x="1371.43" y="1057.14" width="57.1429" height="57.1429" fill="#212529"/>
<rect x="1314.29" y="1057.14" width="57.1429" height="57.1429" fill="#212529"/>
<rect x="1314.29" y="1000" width="57.1429" height="57.1429" fill="#212529"/>
<rect x="1314.29" y="942.857" width="57.1429" height="57.1429" fill="#212529"/>
<rect x="1314.29" y="885.714" width="57.1429" height="57.1429" fill="#212529"/>
<rect x="1314.29" y="828.571" width="57.1429" height="57.1429" fill="#212529"/>
<rect x="1314.29" y="771.429" width="57.1429" height="57.1429" fill="#212529"/>
<rect x="1314.29" y="714.286" width="57.1429" height="57.1429" fill="#212529"/>
<rect x="1314.29" y="657.143" width="57.1429" height="57.1429" fill="#212529"/>
<rect x="1314.29" y="600" width="57.1429" height="57.1429" fill="#212529"/>
<rect x="1371.43" y="542.857" width="57.1429" height="57.1429" fill="#212529"/>
<rect x="1371.43" y="600" width="57.1429" height="57.1429" fill="#212529"/>
<rect x="1371.43" y="657.143" width="57.1429" height="57.1429" fill="#212529"/>
<rect x="1371.43" y="828.571" width="57.1429" height="57.1429" fill="#212529"/>
<rect x="1371.43" y="885.714" width="57.1429" height="57.1429" fill="#212529"/>
<rect x="1371.43" y="942.857" width="57.1429" height="57.1429" fill="#212529"/>
<rect x="1371.43" y="1000" width="57.1429" height="57.1429" fill="#212529"/>
<rect x="1257.14" y="885.714" width="57.1429" height="57.1429" fill="#212529"/>
<rect x="1257.14" y="828.571" width="57.1429" height="57.1429" fill="#212529"/>
<rect x="1257.14" y="771.429" width="57.1429" height="57.1429" fill="#212529"/>
<rect x="1257.14" y="714.286" width="57.1429" height="57.1429" fill="#212529"/>
<rect x="1257.14" y="657.143" width="57.1429" height="57.1429" fill="#212529"/>
<rect x="1200" y="600" width="57.1429" height="57.1429" fill="#212529"/>
<rect x="1142.86" y="542.857" width="57.1429" height="57.1429" fill="#212529"/>
<rect x="1142.86" y="485.714" width="57.1429" height="57.1429" fill="#212529"/>
<rect x="1200" y="542.857" width="57.1429" height="57.1429" fill="#212529"/>
<rect x="1142.86" y="600" width="57.1429" height="57.1429" fill="#212529"/>
<rect x="1085.71" y="657.143" width="57.1429" height="57.1429" fill="#212529"/>
<rect x="1142.86" y="657.143" width="57.1429" height="57.1429" fill="#212529"/>
<rect x="1200" y="714.286" width="57.1429" height="57.1429" fill="#212529"/>
<rect x="1200" y="771.429" width="57.1429" height="57.1429" fill="#212529"/>
<rect x="1142.86" y="714.286" width="57.1429" height="57.1429" fill="#212529"/>
<rect x="1028.57" y="657.143" width="57.1429" height="57.1429" fill="#212529"/>
<rect x="914.286" y="600" width="57.1429" height="57.1429" fill="#212529"/>
<rect x="914.286" y="542.857" width="57.1429" height="57.1429" fill="#212529"/>
<rect x="971.429" y="600" width="57.1429" height="57.1429" fill="#212529"/>
<rect x="1085.71" y="600" width="57.1429" height="57.1429" fill="#212529"/>
<rect x="1028.57" y="542.857" width="57.1429" height="57.1429" fill="#212529"/>
<rect x="914.286" y="657.143" width="57.1429" height="57.1429" fill="#212529"/>
<rect x="971.429" y="657.143" width="57.1429" height="57.1429" fill="#212529"/>
<rect x="971.429" y="714.286" width="57.1429" height="57.1429" fill="#212529"/>
<rect x="1028.57" y="714.286" width="57.1429" height="57.1429" fill="#212529"/>
<rect x="914.286" y="771.429" width="57.1429" height="57.1429" fill="#212529"/>
<rect x="857.143" y="771.429" width="57.1429" height="57.1429" fill="#212529"/>
<rect x="800" y="714.286" width="57.1429" height="57.1429" fill="#212529"/>
<rect x="800" y="657.143" width="57.1429" height="57.1429" fill="#212529"/>
<rect x="857.143" y="657.143" width="57.1429" height="57.1429" fill="#212529"/>
<rect x="914.286" y="714.286" width="57.1429" height="57.1429" fill="#212529"/>
<rect x="857.143" y="714.286" width="57.1429" height="57.1429" fill="#212529"/>
<rect x="857.143" y="828.571" width="57.1429" height="57.1429" fill="#212529"/>
<rect x="1142.86" y="942.857" width="57.1429" height="57.1429" fill="#212529"/>
<rect x="1142.86" y="1000" width="57.1429" height="57.1429" fill="#212529"/>
<rect x="1142.86" y="1057.14" width="57.1429" height="57.1429" fill="#212529"/>
<rect x="1085.71" y="1114.29" width="57.1429" height="57.1429" fill="#212529"/>
<rect x="1028.57" y="1114.29" width="57.1429" height="57.1429" fill="#212529"/>
<rect x="971.429" y="1057.14" width="57.1429" height="57.1429" fill="#212529"/>
<rect x="971.429" y="1000" width="57.1429" height="57.1429" fill="#212529"/>
<rect x="1028.57" y="942.857" width="57.1429" height="57.1429" fill="#212529"/>
<rect x="1085.71" y="942.857" width="57.1429" height="57.1429" fill="#212529"/>
<rect x="1200" y="942.857" width="57.1429" height="57.1429" fill="#212529"/>
<rect x="742.857" y="942.857" width="57.1429" height="57.1429" fill="#212529"/>
<rect x="685.714" y="942.857" width="57.1429" height="57.1429" fill="#212529"/>
<rect x="628.571" y="1000" width="57.1429" height="57.1429" fill="#212529"/>
<rect x="628.571" y="1057.14" width="57.1429" height="57.1429" fill="#212529"/>
<rect x="685.714" y="1114.29" width="57.1429" height="57.1429" fill="#212529"/>
<rect x="742.857" y="1114.29" width="57.1429" height="57.1429" fill="#212529"/>
<rect x="800" y="1057.14" width="57.1429" height="57.1429" fill="#212529"/>
<rect x="800" y="1000" width="57.1429" height="57.1429" fill="#212529"/>
<rect x="857.143" y="1000" width="57.1429" height="57.1429" fill="#A4C3F1"/>
<rect x="914.286" y="1000" width="57.1429" height="57.1429" fill="#A4C3F1"/>
<rect x="971.429" y="942.857" width="57.1429" height="57.1429" fill="#A4C3F1"/>
<rect x="1028.57" y="885.714" width="57.1429" height="57.1429" fill="#A4C3F1"/>
<rect x="1085.71" y="828.571" width="57.1429" height="57.1429" fill="#A4C3F1"/>
<rect x="1142.86" y="771.429" width="57.1429" height="57.1429" fill="#A4C3F1"/>
<rect x="1085.71" y="714.286" width="57.1429" height="57.1429" fill="#A4C3F1"/>
<rect x="1028.57" y="771.429" width="57.1429" height="57.1429" fill="#A4C3F1"/>
<rect x="1028.57" y="828.571" width="57.1429" height="57.1429" fill="#A4C3F1"/>
<rect x="1085.71" y="885.714" width="57.1429" height="57.1429" fill="#A4C3F1"/>
<rect x="1142.86" y="885.714" width="57.1429" height="57.1429" fill="#A4C3F1"/>
<rect x="1200" y="885.714" width="57.1429" height="57.1429" fill="#A4C3F1"/>
<rect x="1200" y="828.571" width="57.1429" height="57.1429" fill="#A4C3F1"/>
<rect x="1142.86" y="828.571" width="57.1429" height="57.1429" fill="#A4C3F1"/>
<rect x="1085.71" y="771.429" width="57.1429" height="57.1429" fill="#A4C3F1"/>
<rect x="971.429" y="771.429" width="57.1429" height="57.1429" fill="#A4C3F1"/>
<rect x="914.286" y="828.571" width="57.1429" height="57.1429" fill="#A4C3F1"/>
<rect x="914.286" y="942.857" width="57.1429" height="57.1429" fill="#A4C3F1"/>
<rect x="857.143" y="942.857" width="57.1429" height="57.1429" fill="#A4C3F1"/>
<rect x="800" y="942.857" width="57.1429" height="57.1429" fill="#A4C3F1"/>
<rect x="742.857" y="885.714" width="57.1429" height="57.1429" fill="#A4C3F1"/>
<rect x="685.714" y="828.571" width="57.1429" height="57.1429" fill="#A4C3F1"/>
<rect x="685.714" y="771.429" width="57.1429" height="57.1429" fill="#A4C3F1"/>
<rect x="742.857" y="771.429" width="57.1429" height="57.1429" fill="#A4C3F1"/>
<rect x="800" y="771.429" width="57.1429" height="57.1429" fill="#A4C3F1"/>
<rect x="800" y="828.571" width="57.1429" height="57.1429" fill="#A4C3F1"/>
<rect x="742.857" y="828.571" width="57.1429" height="57.1429" fill="#A4C3F1"/>
<rect x="628.571" y="828.571" width="57.1429" height="57.1429" fill="#A4C3F1"/>
<rect x="628.571" y="885.714" width="57.1429" height="57.1429" fill="#A4C3F1"/>
<rect x="685.714" y="885.714" width="57.1429" height="57.1429" fill="#A4C3F1"/>
<rect x="800" y="885.714" width="57.1429" height="57.1429" fill="#A4C3F1"/>
<rect x="914.286" y="885.714" width="57.1429" height="57.1429" fill="#A4C3F1"/>
<rect x="971.429" y="885.714" width="57.1429" height="57.1429" fill="#A4C3F1"/>
<rect x="971.429" y="828.571" width="57.1429" height="57.1429" fill="#A4C3F1"/>
<rect x="857.143" y="885.714" width="57.1429" height="57.1429" fill="#A4C3F1"/>
<rect x="857.143" y="1057.14" width="57.1429" height="57.1429" fill="#A4C3F1"/>
<rect x="857.143" y="1228.57" width="57.1429" height="57.1429" fill="#A4C3F1"/>
<rect x="857.143" y="1285.71" width="57.1429" height="57.1429" fill="#A4C3F1"/>
<rect x="800" y="1285.71" width="57.1429" height="57.1429" fill="#A4C3F1"/>
<rect x="742.857" y="1285.71" width="57.1429" height="57.1429" fill="#A4C3F1"/>
<rect x="685.714" y="1228.57" width="57.1429" height="57.1429" fill="#A4C3F1"/>
<rect x="628.571" y="1171.43" width="57.1429" height="57.1429" fill="#A4C3F1"/>
<rect x="628.571" y="1114.29" width="57.1429" height="57.1429" fill="#A4C3F1"/>
<rect x="685.714" y="1171.43" width="57.1429" height="57.1429" fill="#A4C3F1"/>
<rect x="742.857" y="1228.57" width="57.1429" height="57.1429" fill="#A4C3F1"/>
<rect x="800" y="1228.57" width="57.1429" height="57.1429" fill="#A4C3F1"/>
<rect x="800" y="1171.43" width="57.1429" height="57.1429" fill="#A4C3F1"/>
<rect x="742.857" y="1171.43" width="57.1429" height="57.1429" fill="#A4C3F1"/>
<rect x="800" y="1114.29" width="57.1429" height="57.1429" fill="#A4C3F1"/>
<rect x="914.286" y="1057.14" width="57.1429" height="57.1429" fill="#A4C3F1"/>
<rect x="857.143" y="1114.29" width="57.1429" height="57.1429" fill="#A4C3F1"/>
<rect x="914.286" y="1114.29" width="57.1429" height="57.1429" fill="#A4C3F1"/>
<rect x="971.429" y="1114.29" width="57.1429" height="57.1429" fill="#A4C3F1"/>
<rect x="914.286" y="1171.43" width="57.1429" height="57.1429" fill="#A4C3F1"/>
<rect x="914.286" y="1228.57" width="57.1429" height="57.1429" fill="#A4C3F1"/>
<rect x="914.286" y="1285.71" width="57.1429" height="57.1429" fill="#A4C3F1"/>
<rect x="971.429" y="1285.71" width="57.1429" height="57.1429" fill="#A4C3F1"/>
<rect x="1028.57" y="1228.57" width="57.1429" height="57.1429" fill="#A4C3F1"/>
<rect x="1085.71" y="1171.43" width="57.1429" height="57.1429" fill="#A4C3F1"/>
<rect x="1142.86" y="1114.29" width="57.1429" height="57.1429" fill="#A4C3F1"/>
<rect x="1200" y="1057.14" width="57.1429" height="57.1429" fill="#A4C3F1"/>
<rect x="1257.14" y="1000" width="57.1429" height="57.1429" fill="#A4C3F1"/>
<rect x="1257.14" y="942.857" width="57.1429" height="57.1429" fill="#A4C3F1"/>
<rect x="1200" y="1000" width="57.1429" height="57.1429" fill="#A4C3F1"/>
<rect x="1200" y="1114.29" width="57.1429" height="57.1429" fill="#A4C3F1"/>
<rect x="1142.86" y="1171.43" width="57.1429" height="57.1429" fill="#A4C3F1"/>
<rect x="1085.71" y="1228.57" width="57.1429" height="57.1429" fill="#A4C3F1"/>
<rect x="1028.57" y="1171.43" width="57.1429" height="57.1429" fill="#A4C3F1"/>
<rect x="971.429" y="1171.43" width="57.1429" height="57.1429" fill="#A4C3F1"/>
<rect x="971.429" y="1228.57" width="57.1429" height="57.1429" fill="#A4C3F1"/>
<rect x="1257.14" y="1057.14" width="57.1429" height="57.1429" fill="#A4C3F1"/>
<rect x="1314.29" y="1114.29" width="57.1429" height="57.1429" fill="#A4C3F1"/>
<rect x="1314.29" y="1171.43" width="57.1429" height="57.1429" fill="#A4C3F1"/>
<rect x="1371.43" y="1114.29" width="57.1429" height="57.1429" fill="#A4C3F1"/>
<rect x="1200" y="1171.43" width="57.1429" height="57.1429" fill="#A4C3F1"/>
<rect x="628.571" y="1342.86" width="57.1429" height="57.1429" fill="#212529"/>
<rect x="800" y="1571.43" width="57.1429" height="57.1429" fill="#A4C3F1"/>
<rect x="800" y="1514.29" width="57.1429" height="57.1429" fill="#A4C3F1"/>
<rect x="742.857" y="1514.29" width="57.1429" height="57.1429" fill="#A4C3F1"/>
<rect x="742.857" y="1571.43" width="57.1429" height="57.1429" fill="#A4C3F1"/>
<rect x="685.714" y="1457.14" width="57.1429" height="57.1429" fill="#A4C3F1"/>
<rect x="857.143" y="1514.29" width="57.1429" height="57.1429" fill="#A4C3F1"/>
<rect x="914.286" y="1514.29" width="57.1429" height="57.1429" fill="#A4C3F1"/>
<rect x="971.429" y="1514.29" width="57.1429" height="57.1429" fill="#A4C3F1"/>
<rect x="1028.57" y="1514.29" width="57.1429" height="57.1429" fill="#A4C3F1"/>
<rect x="1085.71" y="1457.14" width="57.1429" height="57.1429" fill="#A4C3F1"/>
<rect x="1142.86" y="1400" width="57.1429" height="57.1429" fill="#A4C3F1"/>
<rect x="1200" y="1342.86" width="57.1429" height="57.1429" fill="#A4C3F1"/>
<rect x="1028.57" y="1457.14" width="57.1429" height="57.1429" fill="#A4C3F1"/>
<rect x="857.143" y="1571.43" width="57.1429" height="57.1429" fill="#A4C3F1"/>
<rect x="914.286" y="1571.43" width="57.1429" height="57.1429" fill="#A4C3F1"/>
<rect x="971.429" y="1571.43" width="57.1429" height="57.1429" fill="#A4C3F1"/>
<rect x="1085.71" y="1571.43" width="57.1429" height="57.1429" fill="#212529"/>
<rect x="1142.86" y="1514.29" width="57.1429" height="57.1429" fill="#212529"/>
<rect x="1142.86" y="1514.29" width="57.1429" height="57.1429" fill="#212529"/>
<rect x="1142.86" y="1457.14" width="57.1429" height="57.1429" fill="#A4C3F1"/>
<rect x="1200" y="1457.14" width="57.1429" height="57.1429" fill="#212529"/>
<rect x="1257.14" y="1400" width="57.1429" height="57.1429" fill="#212529"/>
<rect x="1257.14" y="1342.86" width="57.1429" height="57.1429" fill="#212529"/>
<rect x="1200" y="1400" width="57.1429" height="57.1429" fill="#A4C3F1"/>
<rect x="1085.71" y="1514.29" width="57.1429" height="57.1429" fill="#A4C3F1"/>
<rect x="628.571" y="942.857" width="57.1429" height="57.1429" fill="#212529"/>
<rect x="857.143" y="1171.43" width="57.1429" height="57.1429" fill="#212529"/>
<rect x="914.286" y="1171.43" width="57.1429" height="57.1429" fill="#212529"/>
<rect x="800" y="1342.86" width="57.1429" height="57.1429" fill="#212529"/>
<rect x="857.143" y="1342.86" width="57.1429" height="57.1429" fill="#212529"/>
<rect x="914.286" y="1342.86" width="57.1429" height="57.1429" fill="#212529"/>
<rect x="971.429" y="1342.86" width="57.1429" height="57.1429" fill="#212529"/>
<rect x="1028.57" y="1285.71" width="57.1429" height="57.1429" fill="#212529"/>
<rect x="1085.71" y="1285.71" width="57.1429" height="57.1429" fill="#212529"/>
<rect x="1142.86" y="1228.57" width="57.1429" height="57.1429" fill="#212529"/>
<rect x="800" y="1400" width="57.1429" height="57.1429" fill="#CA3030"/>
<rect x="742.857" y="1400" width="57.1429" height="57.1429" fill="#CA3030"/>
<rect x="685.714" y="1342.86" width="57.1429" height="57.1429" fill="#CA3030"/>
<rect x="857.143" y="1400" width="57.1429" height="57.1429" fill="#CA3030"/>
<rect x="914.286" y="1400" width="57.1429" height="57.1429" fill="#CA3030"/>
<rect x="971.429" y="1400" width="57.1429" height="57.1429" fill="#CA3030"/>
<rect x="1028.57" y="1342.86" width="57.1429" height="57.1429" fill="#CA3030"/>
<rect x="1085.71" y="1342.86" width="57.1429" height="57.1429" fill="#CA3030"/>
<rect x="1142.86" y="1285.71" width="57.1429" height="57.1429" fill="#CA3030"/>
<rect x="742.857" y="714.286" width="57.1429" height="57.1429" fill="#212529"/>
<rect x="685.714" y="714.286" width="57.1429" height="57.1429" fill="#212529"/>
<rect x="628.571" y="771.429" width="57.1429" height="57.1429" fill="#212529"/>
<rect x="1257.14" y="1171.43" width="57.1429" height="57.1429" fill="#212529"/>
<rect x="1257.14" y="1114.29" width="57.1429" height="57.1429" fill="#212529"/>
</svg>
